<?xml version="1.0" encoding="utf-8"?>
<!-- Generator: Adobe Illustrator 22.1.0, SVG Export Plug-In . SVG Version: 6.00 Build 0)  -->
<svg version="1.1" id="Layer_1" xmlns="http://www.w3.org/2000/svg" xmlns:xlink="http://www.w3.org/1999/xlink" x="0px" y="0px"
	 viewBox="0 0 2834.6 1700.8" style="enable-background:new 0 0 2834.6 1700.8;" xml:space="preserve">
<style type="text/css">
	.st0{fill:#FFFFFF;stroke:#FF0000;stroke-width:2.834646e-02;stroke-miterlimit:10;}
	.st1{fill:#FFFFFF;stroke:#000000;stroke-miterlimit:10;}
	.st2{fill:none;}
	.st3{font-family:'SnellRoundhand';}
	.st4{font-size:85.0394px;}
</style>
<g>
</g>
<path class="st0" d="M322.5,1045.5h129.4c1.7,0,3.3-0.5,4.7-1.4l103.5-69c3.2-2.1,4.6-6.1,3.4-9.7L344.5,303.7
	c-1.2-3.7,0.2-7.7,3.4-9.8l82.1-54c7-4.6,3.8-15.5-4.6-15.6l-102.9-0.8c-2.8,0-5,2.2-5,5v402h64.3c2.2,0,4.2,1.4,4.8,3.6v0
	c1,3.2-1.4,6.4-4.8,6.4h-59.3c-2.8,0-5,2.2-5,5v395C317.5,1043.3,319.7,1045.5,322.5,1045.5z"/>
<path class="st0" d="M566.5,972.5l-97.3,64.8c-4.1,2.7-2.2,9.2,2.8,9.2h114.5c2.8,0,5-2.2,5-5v-812c0-2.8-2.3-5-5-5l-132,1"/>
<path class="st0" d="M522.5,632.5"/>
<path class="st0" d="M343.5,298.5"/>
<path class="st0" d="M455.5,632.5"/>
<polyline class="st0" points="454.6,643.9 523.6,643.9 522.6,630.8 454.6,630.8 "/>
<path class="st0" d="M318,631.7l71-0.2l0,16l-71,0.2l1,394c0,2.8,2.3,5,5,5l132-0.3"/>
<path class="st1" d="M804.5,556.5"/>
<path class="st1" d="M862.5,569.5"/>
<path class="st0" d="M323.5,224.5"/>
<path class="st0" d="M454.5,224.5"/>
<path class="st0" d="M586.5,224.5"/>
<path class="st0" d="M343.5,298.5"/>
<line class="st0" x1="454.5" y1="224.5" x2="343.5" y2="298.5"/>
<rect x="323.5" y="815.5" class="st2" width="139.5" height="185.5"/>
<text transform="matrix(-3.896124e-05 1 -1 -3.896124e-05 404.1575 815.5007)" class="st3 st4">CM</text>
</svg>
